<svg xmlns="http://www.w3.org/2000/svg" viewBox="0 0 32 32" shape-rendering="crispEdges"><rect x="9" y="29" width="15" height="2" fill="#070b0c"/><rect x="12" y="4" width="10" height="9" fill="#182d31"/><rect x="10" y="5" width="4" height="7" fill="#24434a"/><rect x="11" y="5" width="12" height="2" fill="#286d72"/><rect x="21" y="5" width="5" height="2" fill="#52adb0"/><rect x="13" y="8" width="8" height="5" fill="#c68f68"/><rect x="14" y="10" width="2" height="1" fill="#e6ffff"/><rect x="18" y="10" width="2" height="1" fill="#e6ffff"/><rect x="10" y="14" width="13" height="4" fill="#1d3d42"/><rect x="8" y="17" width="17" height="8" fill="#162b30"/><rect x="11" y="17" width="11" height="11" fill="#28555a"/><rect x="13" y="18" width="7" height="8" fill="#3e7777"/><rect x="10" y="23" width="13" height="2" fill="#c5a85e"/><rect x="10" y="27" width="5" height="3" fill="#14272b"/><rect x="19" y="27" width="5" height="3" fill="#14272b"/><rect x="5" y="17" width="2" height="10" fill="#b9d8d1"/><rect x="2" y="15" width="5" height="3" fill="#52adb0"/><rect x="1" y="13" width="2" height="5" fill="#d9efea"/></svg>
