<svg xmlns="http://www.w3.org/2000/svg" viewBox="0 0 32 32" shape-rendering="crispEdges"><rect x="5" y="29" width="23" height="2" fill="#090a0d"/><rect x="11" y="4" width="12" height="9" fill="#312a31"/><rect x="9" y="6" width="16" height="3" fill="#71554c"/><rect x="12" y="8" width="10" height="5" fill="#b87f5d"/><rect x="14" y="10" width="2" height="1" fill="#201719"/><rect x="19" y="10" width="2" height="1" fill="#201719"/><rect x="8" y="14" width="18" height="4" fill="#42323b"/><rect x="4" y="17" width="25" height="9" fill="#332935"/><rect x="8" y="17" width="18" height="12" fill="#5b4450"/><rect x="12" y="18" width="10" height="9" fill="#80606b"/><rect x="10" y="24" width="16" height="2" fill="#c7a45b"/><rect x="8" y="27" width="7" height="3" fill="#2d2530"/><rect x="20" y="27" width="7" height="3" fill="#2d2530"/><rect x="1" y="15" width="10" height="13" fill="#28313b"/><rect x="2" y="16" width="8" height="11" fill="#51606b"/><rect x="4" y="18" width="4" height="7" fill="#84929a"/><rect x="5" y="20" width="2" height="3" fill="#d4c66d"/></svg>
