<svg xmlns="http://www.w3.org/2000/svg" width="72" height="72" viewBox="0 0 80 76" shape-rendering="crispEdges"><rect width="80" height="76" fill="none"/><rect x="28" y="2" width="24" height="14" fill="#28222d"/><rect x="19" y="0" width="10" height="13" fill="#cfbd9c"/><rect x="51" y="0" width="10" height="13" fill="#cfbd9c"/><rect x="19" y="15" width="42" height="43" fill="#4b222d"/><rect x="25" y="19" width="30" height="34" fill="#862c3b"/><rect x="4" y="14" width="17" height="7" fill="#d8d0bd"/><rect x="1" y="28" width="20" height="7" fill="#b33b48"/><rect x="4" y="43" width="17" height="7" fill="#d8d0bd"/><rect x="59" y="14" width="17" height="7" fill="#d8d0bd"/><rect x="59" y="28" width="20" height="7" fill="#b33b48"/><rect x="59" y="43" width="17" height="7" fill="#d8d0bd"/><rect x="23" y="58" width="14" height="16" fill="#27232a"/><rect x="44" y="58" width="14" height="16" fill="#27232a"/><rect x="34" y="28" width="12" height="15" fill="#2c1d31"/><rect x="37" y="31" width="6" height="10" fill="#ff4d57"/><path d="M17 23A30 30 0 0 1 64 23" fill="none" stroke="#ad293d" stroke-width="6"/></svg>
